<svg xmlns="http://www.w3.org/2000/svg" width="25" height="17.708" viewBox="0 0 25 17.708"><path d="M30.091,25.722a1.042,1.042,0,0,0-1.473,1.473l.826.826H26.669a3.111,3.111,0,0,1-2.441-1.173l-2.395-2.994,2.395-2.994a3.111,3.111,0,0,1,2.441-1.173h2.774l-.826.826a1.042,1.042,0,1,0,1.473,1.473l2.6-2.6a1.041,1.041,0,0,0,0-1.473l-2.6-2.6a1.042,1.042,0,1,0-1.473,1.473l.826.826H26.669A5.184,5.184,0,0,0,22.6,19.559l-2.1,2.628-2.1-2.628A5.184,5.184,0,0,0,14.331,17.6H9.042a1.042,1.042,0,0,0,0,2.083h5.289a3.111,3.111,0,0,1,2.441,1.173l2.395,2.994-2.395,2.994a3.111,3.111,0,0,1-2.441,1.173H9.042a1.042,1.042,0,0,0,0,2.083h5.289A5.184,5.184,0,0,0,18.4,28.15l2.1-2.628,2.1,2.628A5.184,5.184,0,0,0,26.669,30.1h2.774l-.826.826A1.042,1.042,0,1,0,30.091,32.4l2.6-2.6a1.041,1.041,0,0,0,0-1.473Z" transform="translate(-8 -15)" fill="#21bcce"/></svg>