<svg xmlns="http://www.w3.org/2000/svg" xmlns:xlink="http://www.w3.org/1999/xlink" width="368.733" height="368.733" viewBox="0 0 368.733 368.733"><defs><filter id="a" x="0" y="0" width="368.733" height="368.733" filterUnits="userSpaceOnUse"><feOffset input="SourceAlpha"/><feGaussianBlur stdDeviation="3" result="b"/><feFlood flood-color="#21bcce"/><feComposite operator="in" in2="b"/><feComposite in="SourceGraphic"/></filter></defs><g transform="matrix(1, 0, 0, 1, 0, 0)" filter="url(#a)"><g transform="matrix(0.48, 0.87, -0.87, 0.48, 234.65, 9)" fill="none"><path d="M129,0A129,129,0,1,1,0,129,129,129,0,0,1,129,0Z" stroke="none"/><path d="M 129 3 C 120.4491119384766 3 111.9044647216797 3.861282348632813 103.6034240722656 5.559921264648438 C 95.514892578125 7.215072631835938 87.55879211425781 9.684783935546875 79.95603942871094 12.90046691894531 C 72.49067687988281 16.05807495117188 65.29006958007813 19.9664306640625 58.55429077148438 24.51702880859375 C 51.88174438476563 29.02493286132813 45.60707092285156 34.20204162597656 39.904541015625 39.904541015625 C 34.20204162597656 45.60707092285156 29.02493286132813 51.88174438476563 24.51702880859375 58.55429077148438 C 19.9664306640625 65.29006958007813 16.05807495117188 72.49067687988281 12.90046691894531 79.95603942871094 C 9.684783935546875 87.55879211425781 7.215072631835938 95.514892578125 5.559921264648438 103.6034240722656 C 3.861282348632813 111.9044647216797 3 120.4491119384766 3 129 C 3 137.5509033203125 3.861282348632813 146.0955352783203 5.559921264648438 154.3965759277344 C 7.215072631835938 162.485107421875 9.684783935546875 170.4412231445313 12.90046691894531 178.0439605712891 C 16.05807495117188 185.5093231201172 19.9664306640625 192.7099304199219 24.51702880859375 199.4457092285156 C 29.02493286132813 206.1182556152344 34.20204162597656 212.3929290771484 39.904541015625 218.095458984375 C 45.60707092285156 223.7979736328125 51.88174438476563 228.9750671386719 58.55429077148438 233.4829711914063 C 65.29006958007813 238.0335693359375 72.49067687988281 241.9419250488281 79.95603942871094 245.0995330810547 C 87.55879211425781 248.3152160644531 95.514892578125 250.7849273681641 103.6034240722656 252.4400787353516 C 111.9044647216797 254.1387176513672 120.4491119384766 255 129 255 C 137.5509033203125 255 146.0955352783203 254.1387176513672 154.3965759277344 252.4400787353516 C 162.485107421875 250.7849273681641 170.4412231445313 248.3152160644531 178.0439605712891 245.0995330810547 C 185.5093231201172 241.9419250488281 192.7099304199219 238.0335693359375 199.4457092285156 233.4829711914063 C 206.1182556152344 228.9750671386719 212.3929290771484 223.7979736328125 218.095458984375 218.095458984375 C 223.7979736328125 212.3929290771484 228.9750671386719 206.1182556152344 233.4829711914063 199.4457092285156 C 238.0335693359375 192.7099304199219 241.9419250488281 185.5093231201172 245.0995330810547 178.0439605712891 C 248.3152160644531 170.4412231445313 250.7849273681641 162.485107421875 252.4400787353516 154.3965759277344 C 254.1387176513672 146.0955352783203 255 137.5509033203125 255 129 C 255 120.4491119384766 254.1387176513672 111.9044647216797 252.4400787353516 103.6034240722656 C 250.7849273681641 95.514892578125 248.3152160644531 87.55879211425781 245.0995330810547 79.95603942871094 C 241.9419250488281 72.49067687988281 238.0335693359375 65.29006958007813 233.4829711914063 58.55429077148438 C 228.9750671386719 51.88174438476563 223.7979736328125 45.60707092285156 218.095458984375 39.904541015625 C 212.3929290771484 34.20204162597656 206.1182556152344 29.02493286132813 199.4457092285156 24.51702880859375 C 192.7099304199219 19.9664306640625 185.5093231201172 16.05807495117188 178.0439605712891 12.90046691894531 C 170.4412231445313 9.684783935546875 162.485107421875 7.215072631835938 154.3965759277344 5.559921264648438 C 146.0955352783203 3.861282348632813 137.5509033203125 3 129 3 M 129 0 C 200.2447204589844 0 258 57.75527954101563 258 129 C 258 200.2447204589844 200.2447204589844 258 129 258 C 57.75527954101563 258 0 200.2447204589844 0 129 C 0 57.75527954101563 57.75527954101563 0 129 0 Z" stroke="none" fill="#21bcce"/></g></g></svg>