<svg xmlns="http://www.w3.org/2000/svg" width="15.038" height="11.946" viewBox="0 0 15.038 11.946"><path d="M7.524,20.225a.683.683,0,0,1-1.119.526L2.671,17.657H.683A.683.683,0,0,1,0,16.975V14.254a.683.683,0,0,1,.683-.683H2.671L6.4,10.477A.683.683,0,0,1,7.524,11v9.222Zm2.624-1.067-.049,0a.682.682,0,0,1-.483-.2l-.091-.092a.682.682,0,0,1-.066-.89,3.971,3.971,0,0,0-.105-4.866A.682.682,0,0,1,9.4,12.2l.091-.091a.668.668,0,0,1,.517-.2.684.684,0,0,1,.495.25,5.469,5.469,0,0,1,.142,6.727A.683.683,0,0,1,10.148,19.158Zm2.823,2.11a.684.684,0,0,1-.493.242h-.029a.682.682,0,0,1-.483-.2l-.09-.09a.683.683,0,0,1-.04-.922,7.278,7.278,0,0,0-.121-9.509.683.683,0,0,1,.027-.935l.09-.09a.665.665,0,0,1,.5-.2.683.683,0,0,1,.491.229,8.768,8.768,0,0,1,.144,11.475Z" transform="translate(0 -9.565)" fill="#21bcce"/></svg>